<?xml version="1.0" standalone="no"?>
<!DOCTYPE svg PUBLIC "-//W3C//DTD SVG 20010904//EN"
 "http://www.w3.org/TR/2001/REC-SVG-20010904/DTD/svg10.dtd">
<svg version="1.0" xmlns="http://www.w3.org/2000/svg"
 width="1640.000000pt" height="624.000000pt" viewBox="0 0 1640.000000 624.000000"
 preserveAspectRatio="xMidYMid meet">

<g transform="translate(0.000000,624.000000) scale(0.100000,-0.100000)"
fill="#000000" stroke="none">
<path d="M4480 6226 c0 -28 133 -166 160 -166 25 0 134 -131 131 -157 0 -2 6
-18 15 -38 8 -19 14 -37 14 -40 0 -3 0 -6 1 -7 0 -2 3 -16 5 -32 3 -16 12 -35
20 -43 7 -8 14 -25 14 -39 0 -15 7 -27 18 -30 9 -3 27 -10 39 -16 11 -6 26 -7
32 -4 6 4 11 2 11 -4 0 -6 4 -8 10 -5 5 3 20 0 32 -7 13 -7 26 -11 31 -10 4 1
7 -2 7 -8 0 -5 5 -10 10 -10 38 0 178 -191 234 -320 16 -36 35 -74 43 -85 7
-11 18 -38 24 -60 6 -22 14 -42 18 -45 8 -6 51 -134 51 -152 0 -7 7 -26 15
-42 8 -16 18 -43 21 -60 3 -17 16 -74 29 -127 46 -181 66 -411 45 -527 -10
-60 -45 -159 -61 -172 -3 -3 -12 -16 -19 -30 -7 -14 -22 -31 -32 -38 -10 -7
-15 -19 -12 -25 4 -7 4 -9 -1 -5 -4 4 -14 0 -22 -8 -15 -15 -22 -108 -12 -146
9 -31 82 -89 109 -87 29 2 62 -9 72 -25 5 -7 8 -6 8 3 0 9 12 3 31 -17 17 -18
37 -32 43 -32 11 0 46 -49 46 -64 0 -3 -19 -6 -43 -6 -61 0 -181 -36 -262 -78
-82 -43 -180 -135 -222 -209 l-30 -53 -30 23 c-16 12 -42 37 -57 54 l-27 33
45 96 c25 53 43 100 40 105 -3 5 -59 9 -125 9 -70 0 -118 4 -115 9 4 5 3 11
-2 13 -4 1 -21 26 -37 53 -31 55 -96 141 -147 196 -75 81 -142 99 -196 54 -65
-55 -113 -177 -111 -284 1 -27 -2 -54 -5 -60 -4 -6 0 -14 8 -17 9 -3 16 -13
16 -21 0 -7 11 -24 24 -37 17 -18 31 -23 57 -20 19 3 55 7 82 10 26 3 47 11
47 17 0 6 3 8 6 5 3 -4 19 -2 35 2 16 5 29 6 29 2 0 -9 -252 -626 -259 -634
-3 -4 -39 73 -78 170 -40 97 -105 257 -144 355 l-72 177 -209 0 c-114 0 -208
-2 -208 -4 0 -4 233 -507 416 -899 l69 -147 218 2 217 3 103 220 c225 481 248
525 264 509 8 -7 12 -18 9 -22 -3 -5 4 -29 15 -53 12 -24 25 -53 29 -64 4 -11
18 -42 29 -68 12 -26 28 -73 36 -105 55 -209 115 -370 174 -467 17 -28 48
-149 52 -205 9 -111 -90 -178 -276 -187 -55 -2 -134 -1 -175 4 -91 10 -161 4
-300 -26 -107 -23 -202 -32 -324 -32 -67 1 -170 -22 -181 -40 -17 -26 -12 -45
12 -47 13 -1 31 -9 39 -17 13 -13 13 -18 -3 -41 -9 -15 -18 -23 -19 -18 -1 5
-5 21 -8 37 -5 22 -12 27 -37 27 -30 0 -31 -1 -25 -38 4 -20 9 -99 12 -174 l6
-138 29 0 29 0 0 101 c0 116 15 161 63 186 26 13 36 13 71 2 23 -8 44 -14 48
-14 4 0 16 -8 28 -17 18 -16 20 -30 20 -138 l0 -120 35 0 35 0 0 116 c0 115 0
115 23 108 64 -20 74 -30 80 -91 6 -73 23 -111 58 -129 32 -16 116 -19 154 -4
21 8 30 6 47 -10 12 -11 18 -20 13 -20 -5 0 1 -10 13 -23 12 -13 19 -27 15
-30 -3 -4 -2 -7 4 -7 5 0 10 -6 11 -12 12 -106 7 -120 -50 -140 -16 -6 -25
-15 -21 -21 4 -6 0 -8 -8 -5 -9 3 -37 0 -65 -7 -51 -13 -276 -13 -324 0 -42
12 -163 13 -187 2 -36 -16 -52 -51 -68 -142 -14 -76 -49 -167 -80 -202 -5 -6
-21 -28 -35 -49 -14 -20 -50 -63 -80 -96 -45 -49 -74 -69 -165 -113 -162 -79
-430 -164 -469 -149 -9 3 -16 2 -16 -4 0 -5 -24 -12 -53 -15 -71 -9 -184 -51
-216 -80 -14 -13 -35 -32 -47 -43 -80 -74 -163 -219 -171 -299 l-6 -55 387 0
388 0 61 29 c34 15 73 32 87 36 14 4 56 23 95 41 38 19 76 34 83 34 19 0 152
65 297 145 247 137 270 149 370 199 54 27 124 66 155 86 64 43 195 160 244
219 18 22 40 46 47 54 74 74 166 192 228 292 91 145 136 213 204 305 39 52 81
110 94 129 l23 34 0 -42 c0 -40 1 -41 35 -41 l35 0 0 108 c0 88 3 113 20 139
25 41 54 56 110 55 37 0 49 -6 72 -31 27 -31 28 -34 28 -151 l0 -120 30 0 30
0 0 123 c0 135 -11 173 -63 211 -22 16 -43 21 -93 21 -35 0 -64 1 -64 3 0 1
29 60 64 130 69 138 122 260 158 361 l23 64 70 15 c78 15 195 59 270 100 l50
27 3 122 3 122 -66 -30 c-58 -26 -208 -69 -244 -69 -9 0 -11 7 -7 23 4 12 12
45 20 72 l13 50 84 7 c46 3 117 6 158 7 l74 1 -7 78 c-13 162 -74 312 -169
417 l-54 60 -6 95 c-10 153 -36 450 -47 520 -5 36 -12 92 -15 125 -8 72 -59
339 -79 410 -40 140 -150 400 -183 434 -8 7 -17 26 -20 42 -3 16 -8 27 -12 25
-4 -3 -13 10 -21 27 -7 18 -16 34 -19 37 -3 3 -11 14 -17 25 -6 11 -17 20 -25
20 -8 1 -13 7 -11 13 2 11 -41 78 -59 92 -4 3 -19 27 -34 53 -25 46 -41 69
-75 107 -8 9 -16 23 -18 31 -2 8 -10 21 -18 30 -8 8 -14 20 -14 26 0 5 -11 20
-25 33 -14 13 -25 29 -25 36 0 7 -11 21 -24 31 -13 10 -27 29 -30 41 -4 12
-18 30 -32 38 -13 9 -30 28 -37 42 -21 42 -41 74 -57 92 -38 43 -50 62 -45 70
3 5 -1 12 -9 17 -8 4 -16 15 -18 23 -2 8 -11 21 -20 28 -10 7 -18 19 -18 26 0
8 -7 16 -15 20 -8 3 -14 10 -13 14 2 5 -9 24 -24 41 -16 17 -28 35 -28 39 0 5
-9 17 -20 27 -11 10 -20 24 -20 31 0 7 -10 20 -22 28 -31 22 -448 24 -448 2z
m1273 -3021 c-1 -33 -2 -68 -2 -77 -1 -16 -15 -18 -141 -18 -77 0 -140 3 -140
6 0 17 45 76 78 102 50 39 87 51 152 49 l55 -2 -2 -60z m-1122 -1585 c21 -20
39 -39 39 -43 0 -4 -20 -7 -44 -7 -52 0 -76 24 -76 77 0 31 1 32 21 21 12 -7
39 -29 60 -48z"/>
<path d="M2 5348 l3 -133 55 -3 c74 -4 110 4 141 31 101 87 38 170 -179 232
l-23 7 3 -134z"/>
<path d="M1241 5172 c-33 -11 -96 -75 -117 -118 -8 -17 -14 -50 -12 -74 3 -38
8 -47 48 -76 25 -18 51 -33 57 -33 7 -1 27 -10 45 -21 18 -11 71 -32 118 -46
47 -14 94 -30 105 -35 11 -5 63 -23 115 -40 52 -17 109 -37 125 -44 17 -7 68
-27 115 -43 100 -36 170 -63 342 -130 192 -76 309 -89 384 -43 40 24 69 83 54
111 -14 25 -51 65 -70 73 -8 4 -44 23 -80 43 -58 32 -101 51 -290 136 -85 38
-241 102 -400 163 -80 31 -154 60 -165 64 -11 5 -58 24 -105 41 -47 18 -107
41 -135 51 -53 20 -110 29 -134 21z"/>
<path d="M12320 4889 c-70 -12 -178 -63 -256 -122 -71 -54 -83 -67 -89 -96 -2
-12 -13 -38 -24 -59 -11 -20 -30 -61 -42 -89 -12 -29 -25 -51 -29 -48 -10 6
-20 -47 -19 -99 l1 -41 10 53 c9 47 28 73 28 37 0 -19 24 -19 54 1 16 10 28
32 36 66 8 30 25 64 43 84 l31 33 23 -21 c28 -26 31 -9 8 46 -13 31 -14 44 -3
79 11 38 12 39 16 15 2 -16 11 -30 22 -33 12 -4 26 -27 37 -62 30 -89 40 -77
39 42 -1 58 0 105 2 105 15 0 192 -92 192 -100 0 -5 -7 -13 -16 -18 -9 -5 -14
-14 -10 -21 9 -14 43 -13 80 2 l29 13 -37 29 c-85 69 -119 102 -112 113 4 7
17 8 36 2 43 -12 37 -2 -12 20 l-43 19 33 0 c19 1 50 -7 70 -16 35 -17 36 -17
12 -24 l-25 -6 29 -12 c25 -10 31 -9 39 4 13 24 106 10 187 -28 58 -27 62 -31
38 -35 -16 -2 -28 -7 -28 -12 0 -13 29 -21 55 -14 16 4 27 0 38 -16 9 -13 36
-26 68 -34 30 -8 63 -17 74 -20 56 -20 -150 138 -255 195 -14 8 -25 21 -25 29
0 31 -201 56 -305 39z"/>
<path d="M12720 4535 c7 -8 27 -15 45 -15 33 0 37 -5 59 -72 3 -11 11 -15 20
-12 21 8 31 -38 15 -68 l-12 -23 23 20 c30 26 100 114 100 126 0 21 -21 6 -34
-25 -17 -41 -36 -55 -36 -26 0 11 -6 36 -14 54 -12 29 -21 35 -66 45 -28 6
-65 11 -82 11 -26 0 -29 -2 -18 -15z"/>
<path d="M12453 4510 c4 -15 -2 -24 -26 -36 -28 -15 -29 -18 -14 -29 9 -7 17
-20 17 -29 0 -26 37 -2 42 28 7 33 -2 86 -14 86 -6 0 -8 -9 -5 -20z"/>
<path d="M12550 4420 c0 -16 -7 -33 -15 -37 -12 -7 -8 -24 25 -108 21 -55 40
-99 42 -98 2 0 15 7 30 13 l27 13 -25 67 c-30 85 -72 180 -79 180 -3 0 -5 -13
-5 -30z"/>
<path d="M12302 4409 c-17 -12 -32 -23 -32 -25 0 -2 14 -11 31 -19 42 -22 61
-13 53 22 -10 42 -16 44 -52 22z"/>
<path d="M12080 4255 l-65 -54 -3 32 c-2 18 -13 41 -24 51 l-21 19 5 -85 c3
-53 10 -95 20 -109 16 -27 32 -77 18 -63 -4 5 -10 18 -13 29 -3 11 -5 -1 -6
-27 0 -26 4 -50 9 -53 6 -4 8 -11 5 -16 -4 -5 15 -9 41 -9 41 0 45 2 31 13
-11 8 -14 17 -8 26 7 10 23 11 82 3 74 -9 129 -1 129 20 0 22 -22 48 -42 48
-17 0 -18 -3 -9 -14 19 -23 -17 -36 -97 -36 -73 0 -89 10 -75 46 3 9 0 19 -6
23 -23 15 17 74 71 106 27 17 54 33 60 36 10 7 -16 69 -30 69 -4 0 -36 -25
-72 -55z"/>
<path d="M12428 4108 c-27 -6 -48 -14 -48 -18 0 -21 24 -19 73 4 56 26 50 29
-25 14z"/>
<path d="M12652 4073 c-20 -17 -21 -22 -10 -95 7 -43 9 -80 5 -84 -7 -7 -82
34 -133 73 -26 19 -33 21 -49 9 -17 -12 -14 -17 39 -67 31 -31 56 -59 56 -64
0 -4 -9 0 -20 10 -11 10 -20 14 -20 8 0 -15 42 -50 73 -62 22 -9 35 -7 60 6
48 24 139 94 133 100 -3 4 -2 11 3 17 13 17 22 75 15 103 -6 23 -8 21 -35 -26
-16 -27 -33 -52 -37 -55 -5 -3 -19 28 -31 69 -13 41 -24 75 -26 75 -1 0 -12
-8 -23 -17z"/>
<path d="M12108 3983 c6 -2 18 -2 25 0 6 3 1 5 -13 5 -14 0 -19 -2 -12 -5z"/>
<path d="M2699 3966 c-93 -33 -134 -92 -127 -185 5 -69 32 -112 91 -144 34
-17 62 -22 142 -25 55 -1 117 -4 137 -6 50 -5 99 29 141 102 97 166 79 214
-76 212 -22 -1 -49 7 -65 18 -61 42 -169 55 -243 28z"/>
<path d="M3180 3170 l0 -710 190 0 190 0 0 710 0 710 -190 0 -190 0 0 -710z"/>
<path d="M12330 3770 c0 -8 -9 -10 -27 -6 -19 5 -24 4 -14 -3 22 -14 147 -24
166 -13 13 7 6 10 -31 15 -27 4 -59 9 -71 13 -15 4 -23 2 -23 -6z"/>
<path d="M1574 3525 c-132 -24 -219 -62 -289 -126 -64 -59 -89 -118 -89 -209
-1 -93 25 -152 91 -210 82 -72 198 -103 471 -125 265 -21 319 -38 310 -96 -7
-48 -94 -79 -223 -79 -137 0 -240 37 -281 101 l-24 39 -185 0 c-101 0 -186 -3
-188 -7 -3 -5 1 -32 9 -60 56 -216 324 -336 717 -320 227 9 366 55 463 152 29
29 58 70 69 98 15 41 35 63 35 40 0 -5 14 -9 30 -10 17 -1 30 2 30 7 0 6 7 10
15 10 8 0 26 12 40 27 l25 28 0 -163 0 -162 190 0 190 0 0 535 c0 421 -3 535
-12 535 -7 0 -51 -9 -96 -19 -73 -16 -92 -17 -145 -6 -34 7 -77 15 -94 19
l-33 6 0 -245 0 -245 -36 6 c-27 4 -48 -1 -80 -18 -24 -12 -44 -25 -44 -29 0
-3 -6 -14 -14 -24 -13 -18 -15 -18 -41 13 -35 42 -152 98 -245 116 -41 8 -169
22 -284 31 -217 17 -266 28 -286 65 -10 19 -9 27 7 49 11 14 35 31 54 38 51
18 215 16 279 -3 50 -15 110 -60 121 -91 3 -8 63 -14 197 -19 219 -8 207 -14
171 81 -45 121 -200 226 -391 266 -110 22 -323 25 -434 4z"/>
<path d="M7103 3526 c-95 -30 -172 -104 -227 -218 l-33 -68 -12 72 c-6 40 -16
101 -22 136 l-11 62 -193 0 -192 0 33 -167 34 -167 0 -358 0 -358 189 0 189 0
4 273 c4 222 7 280 21 315 26 69 64 109 133 143 70 35 143 42 272 26 l62 -8 0
159 c0 157 0 160 -22 166 -40 10 -181 5 -225 -8z"/>
<path d="M8035 3514 c-236 -38 -355 -140 -355 -301 0 -83 22 -135 75 -182 78
-68 165 -93 425 -120 221 -24 279 -35 322 -65 44 -30 60 -62 53 -111 -12 -83
-104 -139 -259 -157 -109 -13 -240 5 -321 43 -66 31 -130 97 -146 148 l-12 41
-89 0 -89 0 7 -37 c23 -136 129 -241 299 -299 70 -24 99 -28 235 -32 233 -6
372 32 467 127 86 86 106 227 48 327 -57 96 -158 132 -476 168 -262 30 -292
37 -336 81 -28 28 -33 40 -33 79 0 103 103 156 304 156 121 -1 174 -9 241 -41
57 -27 121 -90 135 -135 l12 -34 84 0 c96 0 96 1 68 84 -21 62 -99 145 -171
183 -104 56 -184 75 -328 78 -71 2 -143 1 -160 -1z"/>
<path d="M9300 3504 c-198 -42 -346 -180 -404 -373 -20 -70 -21 -218 -1 -296
35 -134 139 -262 267 -326 223 -113 558 -87 772 61 l46 31 0 64 c0 36 -3 65
-6 65 -3 0 -18 -8 -32 -19 -187 -132 -490 -169 -671 -83 -103 48 -195 164
-208 262 l-6 40 477 0 476 0 0 43 c0 69 -28 177 -65 255 -65 137 -195 241
-346 277 -79 18 -212 18 -299 -1z m265 -139 c114 -30 195 -102 241 -213 42
-101 77 -92 -362 -92 l-386 0 7 37 c23 126 149 245 288 272 68 14 149 12 212
-4z"/>
<path d="M10680 3505 c-115 -33 -203 -105 -260 -215 -16 -30 -30 -53 -31 -50
-1 3 -11 61 -23 130 l-21 125 -74 3 c-41 2 -80 1 -86 -2 -9 -3 -5 -44 16 -158
28 -150 29 -160 29 -515 l0 -363 85 0 85 0 0 268 c0 290 9 361 53 448 35 70
91 122 166 157 57 27 76 31 155 31 50 1 110 -2 134 -7 l42 -7 0 74 c0 42 -5
78 -11 81 -24 15 -204 15 -259 0z"/>
<path d="M13185 3504 c-201 -43 -353 -181 -409 -373 -21 -70 -21 -228 -1 -306
47 -178 204 -324 397 -370 83 -19 267 -19 343 0 198 50 361 201 399 368 l6 27
-88 0 -89 0 -12 -39 c-17 -57 -79 -131 -142 -168 -129 -77 -327 -85 -459 -18
-132 67 -209 217 -197 385 13 184 115 308 292 355 208 54 442 -46 501 -214
l19 -51 88 0 89 0 -7 33 c-12 63 -67 159 -124 216 -67 69 -191 134 -296 156
-88 18 -219 18 -310 -1z"/>
<path d="M14480 3504 c-96 -20 -202 -76 -269 -143 -100 -97 -151 -226 -151
-381 0 -158 50 -280 154 -378 120 -111 259 -162 447 -162 171 0 312 39 439
121 l60 39 0 65 c0 36 -3 65 -6 65 -3 0 -18 -8 -32 -19 -48 -33 -146 -79 -222
-103 -63 -19 -97 -23 -205 -23 -150 0 -225 20 -307 80 -79 58 -148 170 -148
242 l0 23 475 0 475 0 0 48 c0 71 -34 193 -76 272 -110 210 -365 312 -634 254z
m265 -139 c116 -30 202 -108 245 -221 34 -92 69 -84 -366 -84 l-386 0 7 37
c23 126 149 245 288 272 68 14 149 12 212 -4z"/>
<path d="M11000 3495 c0 -2 116 -236 257 -520 l258 -515 92 0 93 0 255 510
c140 280 255 515 255 520 0 7 -32 10 -87 8 l-87 -3 -210 -437 c-116 -241 -212
-438 -215 -438 -4 0 -98 193 -210 428 -113 235 -209 433 -214 440 -9 11 -187
19 -187 7z"/>
<path d="M12370 2978 l0 -518 90 0 90 0 0 518 0 517 -90 0 -90 0 0 -517z"/>
<path d="M18 2483 c-16 -4 -18 -21 -18 -180 0 -146 2 -174 13 -164 8 6 16 8
20 5 3 -3 11 4 17 16 7 12 18 19 26 16 9 -3 14 1 14 11 0 9 3 14 6 10 18 -18
114 66 114 99 0 8 4 14 9 14 6 0 8 24 6 52 -3 43 -8 57 -32 76 -54 44 -117 60
-175 45z"/>
<path d="M3862 1988 c-28 -28 -3 -72 39 -66 30 4 47 33 33 56 -14 21 -55 27
-72 10z"/>
<path d="M8440 1985 c-26 -32 13 -81 48 -59 34 22 22 74 -18 74 -10 0 -23 -7
-30 -15z"/>
<path d="M11262 1988 c-30 -30 6 -76 48 -63 25 8 28 60 4 69 -24 9 -39 7 -52
-6z"/>
<path d="M11757 1958 c-4 -24 -9 -73 -13 -109 l-6 -67 -39 39 c-85 85 -224 71
-283 -30 -31 -54 -28 -148 8 -201 63 -96 191 -105 276 -20 l39 39 3 -42 c3
-38 6 -42 32 -45 l29 -4 -7 99 c-6 86 0 191 20 341 5 41 5 42 -24 42 -27 0
-30 -3 -35 -42z m-130 -139 c59 -22 120 -102 108 -140 -10 -29 -63 -88 -96
-105 -86 -44 -189 22 -189 123 0 43 33 96 71 115 39 21 66 22 106 7z"/>
<path d="M6419 1914 c-7 -25 -17 -47 -23 -49 -6 -2 -23 -6 -38 -9 -45 -10 -35
-36 12 -36 l40 0 0 -119 c0 -104 2 -121 21 -144 30 -39 86 -53 154 -38 49 11
55 15 55 38 0 20 -4 24 -17 18 -10 -4 -38 -10 -63 -12 -35 -4 -51 -1 -70 15
-23 19 -25 27 -28 131 l-4 111 86 0 c85 0 86 0 86 25 0 25 -1 25 -85 25 l-85
0 0 45 c0 62 -26 62 -41 -1z"/>
<path d="M6061 1870 c-39 -9 -77 -35 -105 -74 -17 -22 -21 -42 -21 -99 0 -85
22 -124 88 -159 89 -48 266 -15 275 50 l4 23 -43 -22 c-94 -48 -209 -33 -249
33 -35 58 -35 58 141 58 l162 0 -6 34 c-20 124 -118 186 -246 156z m149 -76
c15 -16 31 -39 35 -51 l6 -23 -130 0 c-140 0 -147 3 -115 49 48 68 150 80 204
25z"/>
<path d="M6947 1867 c-52 -17 -87 -52 -87 -89 0 -65 39 -92 150 -103 130 -14
163 -32 139 -76 -33 -63 -219 -46 -236 22 -4 13 -14 19 -34 19 -68 0 -10 -90
74 -115 133 -39 257 7 257 96 0 66 -39 89 -180 104 -89 10 -110 19 -110 49 0
36 35 56 98 56 58 0 106 -19 122 -50 7 -13 21 -20 40 -20 35 0 35 1 15 40 -31
59 -163 95 -248 67z"/>
<path d="M7387 1865 c-91 -32 -141 -125 -117 -214 33 -125 184 -176 319 -109
32 16 47 30 49 47 2 13 0 21 -5 19 -92 -46 -158 -58 -217 -38 -40 13 -86 62
-86 91 0 18 9 19 160 19 l160 0 -6 28 c-15 67 -27 93 -59 121 -56 49 -127 62
-198 36z m133 -50 c33 -17 60 -52 60 -77 0 -16 -12 -18 -125 -18 -113 0 -125
2 -125 18 0 68 116 115 190 77z"/>
<path d="M7863 1869 c-17 -5 -45 -25 -61 -45 l-30 -36 -7 41 c-6 37 -9 41 -37
41 -27 0 -30 -3 -23 -22 4 -13 10 -92 12 -175 l5 -153 29 0 29 0 0 108 c0 88
3 113 20 139 25 42 55 57 113 56 42 -1 47 1 47 22 0 35 -33 43 -97 24z"/>
<path d="M8708 1871 c-123 -40 -174 -169 -109 -275 68 -109 274 -109 341 0 27
42 25 54 -7 54 -21 0 -33 -8 -45 -30 -31 -55 -126 -77 -189 -45 -93 49 -89
201 6 241 69 29 152 8 183 -46 12 -22 24 -30 45 -30 15 0 27 5 27 11 0 25 -41
76 -78 97 -43 24 -133 36 -174 23z"/>
<path d="M9140 1869 c-110 -34 -160 -150 -109 -256 31 -65 93 -98 184 -98 89
0 165 33 165 71 l0 24 -42 -21 c-94 -48 -208 -32 -249 35 -34 56 -33 56 142
56 l162 0 -6 41 c-7 51 -48 114 -87 134 -40 21 -116 27 -160 14z m157 -83 c57
-62 51 -66 -97 -66 -139 0 -146 3 -114 49 30 43 74 63 128 58 42 -4 55 -10 83
-41z"/>
<path d="M9808 1870 c-35 -10 -77 -44 -100 -78 l-18 -27 0 53 c0 51 0 52 -30
52 l-30 0 0 -225 0 -225 30 0 30 0 0 96 0 96 39 -40 c58 -59 129 -76 198 -47
50 21 72 42 94 90 33 71 15 170 -39 218 -43 39 -117 54 -174 37z m103 -55
c115 -60 73 -255 -55 -255 -58 0 -132 53 -156 111 -10 24 -9 33 8 61 54 87
132 119 203 83z"/>
<path d="M10262 1873 c-13 -3 -41 -23 -63 -45 -38 -39 -39 -40 -39 -15 0 41
-10 57 -37 57 -25 0 -25 -2 -19 -46 3 -26 6 -105 6 -175 l0 -129 30 0 30 0 0
98 c1 126 19 171 80 196 27 11 54 14 76 10 31 -6 34 -4 34 19 0 34 -28 43 -98
30z"/>
<path d="M10514 1871 c-158 -41 -196 -246 -60 -326 108 -63 262 -30 312 68 33
62 17 165 -32 208 -52 46 -150 68 -220 50z m135 -59 c53 -26 76 -65 75 -123 0
-37 -6 -55 -25 -75 -50 -54 -123 -69 -194 -40 -97 41 -99 199 -2 241 44 19
105 18 146 -3z"/>
<path d="M12000 1869 c-154 -46 -179 -251 -40 -329 62 -35 164 -35 233 -2 37
19 47 29 47 48 l0 24 -42 -21 c-94 -48 -208 -32 -249 35 -34 56 -33 56 142 56
l162 0 -7 42 c-18 114 -131 181 -246 147z m157 -83 c57 -62 51 -66 -97 -66
-139 0 -146 3 -114 49 30 43 74 63 128 58 42 -4 55 -10 83 -41z"/>
<path d="M12475 1873 c-31 -8 -73 -41 -80 -63 -9 -28 -25 -25 -25 4 0 40 -11
56 -37 56 -25 0 -25 -2 -19 -46 3 -26 6 -105 6 -175 l0 -129 30 0 30 0 0 97
c0 123 20 173 81 197 26 11 53 14 75 10 31 -6 34 -4 34 19 0 34 -34 45 -95 30z"/>
<path d="M3860 1695 l0 -175 35 0 35 0 0 175 0 175 -35 0 -35 0 0 -175z"/>
<path d="M7980 1865 c0 -3 38 -82 85 -175 84 -168 86 -170 118 -170 32 0 33 2
120 175 l87 175 -31 0 c-29 0 -33 -5 -100 -145 -38 -80 -71 -145 -74 -145 -2
0 -36 65 -74 145 -67 140 -71 145 -100 145 -17 0 -31 -2 -31 -5z"/>
<path d="M8440 1695 l0 -175 30 0 30 0 0 175 0 175 -30 0 -30 0 0 -175z"/>
<path d="M10887 1695 l88 -176 34 3 c32 3 35 6 116 176 l84 172 -29 0 c-28 0
-33 -8 -101 -147 l-71 -148 -72 145 c-68 139 -73 145 -104 148 l-33 3 88 -176z"/>
<path d="M11260 1695 l0 -175 30 0 30 0 0 175 0 175 -30 0 -30 0 0 -175z"/>
<path d="M1667 1834 c-2 -3 -14 -6 -26 -9 -23 -4 -81 -42 -81 -53 0 -6 -88
-128 -117 -162 -31 -36 -141 -178 -163 -210 -91 -132 -292 -360 -318 -360 -5
0 -15 -7 -22 -15 -20 -24 -140 -99 -200 -125 -79 -34 -180 -34 -235 1 -22 14
-71 41 -108 59 -60 29 -79 34 -155 35 -86 2 -150 18 -195 50 -46 32 -47 29
-47 -196 l0 -211 58 6 c89 9 160 9 247 1 94 -8 149 -16 215 -29 42 -9 137 -36
165 -46 11 -4 40 -13 65 -20 25 -7 56 -16 70 -21 67 -22 164 -42 245 -49 50
-5 155 -16 234 -25 221 -26 347 -13 392 41 25 30 -82 93 -160 93 -80 0 -193
34 -242 73 -53 43 -52 140 2 245 12 24 64 87 114 141 149 158 226 251 339 412
57 80 116 193 116 219 0 31 -40 101 -58 101 -9 0 -25 8 -36 18 -21 18 -91 44
-99 36z"/>
</g>
</svg>
